<?xml version="1.0" encoding="UTF-8" standalone="no"?>
<svg width="220" height="76" xmlns="http://www.w3.org/2000/svg">
 <!-- Generator: Sketch 39.1 (31720) - http://www.bohemiancoding.com/sketch -->
 <title>logo-with-text</title>
 <desc>Created with Sketch.</desc>

 <g>
  <title>background</title>
  <rect fill="none" id="canvas_background" height="402" width="582" y="-1" x="-1"/>
 </g>
 <g>
  <title>Layer 1</title>
  <text font-weight="bold" xml:space="preserve" text-anchor="start" font-family="'Shadows Into Light', serif" font-size="63" id="svg_2" y="59.843722" x="35.571528" stroke-width="0" stroke="#000" fill="#ffffff">uuman</text>
  <defs>
   <style type="text/css"/>
  </defs>
  <g transform="rotate(-0.047705914825201035 18.558382034290574,37.1431198120122) " stroke="null" id="svg_9">
   <path transform="rotate(-0.19082365930080414 18.61748886108553,46.52237319946215) " stroke="null" id="svg_6" fill="#ffffff" d="m18.686593,45.969456l8.465002,0.552917l0,1.105834l-8.465002,-0.552917l0,-1.105834zm0,1.105834l8.465002,-0.552917l0,1.105834l-8.465002,0.552917l0,-1.105834zm-0.060883,1.105834l-8.542329,-0.552917l0,-1.105834l8.542329,0.552917l0,1.105834zm0.060883,-2.211669l-8.542329,0.552917l0,-1.105834l8.542329,-0.552917l0,1.105834z"/>
   <path stroke="null" transform="rotate(-0.19082365930080414 18.160667419432336,36.85826873779334) " id="svg_7" fill="#ffffff" d="m15.128656,17.495554l6.064024,0l0,38.725434l-6.064024,0l0,-38.725434z"/>
   <path stroke="null" transform="rotate(-0.09541182965040207 18.558382034302024,29.95420455932536) " id="svg_8" fill="#ffffff" d="m33.794565,20.256438c0.122655,1.107604 0.138654,2.232016 0.062217,3.355544c-0.075104,1.123528 -0.248422,2.246171 -0.514175,3.35289c-0.133321,0.55336 -0.293751,1.101411 -0.474623,1.644155c-0.180872,0.543186 -0.391964,1.077083 -0.623054,1.604787c-0.462624,1.054524 -1.031017,2.071007 -1.702066,3.026005c-0.670605,0.955441 -1.448756,1.846301 -2.325565,2.642059c-0.877697,0.794431 -1.854497,1.493319 -2.910845,2.057737c-1.055459,0.565745 -2.187355,0.996578 -3.353026,1.281883c-0.582613,0.143316 -1.174115,0.248149 -1.768282,0.320692c-0.594168,0.071658 -1.191446,0.105718 -1.786947,0.110141c-0.592835,0.001769 -1.185225,-0.024771 -1.778504,-0.081832c-0.59239,-0.059715 -1.183892,-0.150393 -1.769616,-0.276901c-1.170559,-0.254342 -2.31801,-0.653769 -3.389467,-1.203148c-1.072791,-0.546725 -2.066922,-1.241188 -2.947286,-2.045794c-0.440849,-0.402081 -0.852811,-0.83203 -1.236331,-1.282326a15.095595,15.025281 0 0 1 -1.059014,-1.413256c-0.647496,-0.977558 -1.179003,-2.017927 -1.600742,-3.090586c-0.210647,-0.536551 -0.399519,-1.078852 -0.559504,-1.62823c-0.159097,-0.549379 -0.297306,-1.102738 -0.411073,-1.659636c-0.110657,-0.557341 -0.203537,-1.116893 -0.271086,-1.677772c-0.066216,-0.561322 -0.115989,-1.122643 -0.139098,-1.684407c-0.050218,-1.123085 -0.019109,-2.244401 0.104435,-3.352447c0.124877,1.107604 0.287529,2.201053 0.510175,3.276808c0.113323,0.537435 0.235534,1.07089 0.379076,1.597267c0.141765,0.526819 0.295973,1.048331 0.471957,1.560996c0.173317,0.513107 0.3613,1.019579 0.571059,1.514993c0.20887,0.495414 0.430627,0.983308 0.676382,1.457047c0.490177,0.947479 1.051904,1.848955 1.694067,2.677004c0.641719,0.827606 1.363431,1.581785 2.160691,2.232901c0.397741,0.326442 0.814592,0.625902 1.246552,0.899707c0.432849,0.272478 0.880808,0.518415 1.342544,0.734716c0.923915,0.43216 1.901604,0.748429 2.908622,0.947921c0.503509,0.100852 1.014129,0.173837 1.529193,0.219398c0.51462,0.047772 1.035016,0.068562 1.554969,0.065908c0.517286,-0.001327 1.032794,-0.030079 1.543859,-0.087582c0.511064,-0.055734 1.017685,-0.141989 1.517639,-0.254784c0.999908,-0.22559 1.970486,-0.568399 2.892624,-1.020022c1.84472,-0.904572 3.47657,-2.255902 4.811559,-3.88369c0.668828,-0.813894 1.264329,-1.696792 1.791836,-2.625693c0.263976,-0.46445 0.504843,-0.943498 0.733266,-1.430065c0.228868,-0.487009 0.435516,-0.985077 0.627498,-1.491107c0.384854,-1.011617 0.695936,-2.057737 0.943914,-3.12553c0.245311,-1.067794 0.422184,-2.158589 0.546172,-3.26575z"/>
   <path stroke="null" transform="rotate(-0.19082365930080414 18.06747245788497,55.09542846679628) " id="svg_10" fill="#ffffff" d="m18.180536,54.542511l13.849604,0.552918l0,1.105834l-13.849604,-0.552917l0,-1.105835zm0,1.105835l13.849604,-0.552917l0,1.105834l-13.849604,0.552917l0,-1.105834zm-0.099611,1.105834l-13.976119,-0.552917l0,-1.105834l13.976119,0.552917l0,1.105834zm0.099611,-2.211669l-13.976119,0.552918l0,-1.105835l13.976119,-0.552917l0,1.105834z"/>
  </g>
 </g>
</svg>